<svg width="12" height="12" viewBox="0 0 25 25" fill="none" xmlns="http://www.w3.org/2000/svg">
<path d="M1.70027 23.5128C2.95904 24.7715 4.9999 24.7715 6.25867 23.5128L23.9275 5.84393C25.1863 4.58516 25.1863 2.5443 23.9275 1.28553C22.6687 0.0267665 20.6279 0.0267665 19.3691 1.28553L1.70027 18.9544C0.441499 20.2131 0.441501 22.254 1.70027 23.5128ZM19.2683 23.4119C20.527 24.6707 22.5679 24.6707 23.8267 23.4119C25.0854 22.1532 25.0854 20.1123 23.8267 18.8535L6.35952 1.38638C5.10075 0.127615 3.05988 0.127615 1.80112 1.38638C0.542351 2.64515 0.542351 4.68601 1.80112 5.94478L19.2683 23.4119Z" fill="#46526B"/>
</svg>
