<svg
      width="55"
      height="10"
      viewBox="0 0 13 7"
      fill="none"
      xmlns="http://www.w3.org/2000/svg"
    >
      <path
        d="M0.862305 3.12245C0.606733 3.12245 0.399552 3.32963 0.399552 3.58521C0.399552 3.84078 0.606733 4.04796 0.862305 4.04796V3.12245ZM11.9357 3.91242C12.1164 3.7317 12.1164 3.43871 11.9357 3.25799L8.99073 0.313047C8.81002 0.13233 8.51702 0.13233 8.3363 0.313047C8.15559 0.493763 8.15559 0.786762 8.3363 0.967479L10.954 3.58521L8.3363 6.20293C8.15559 6.38365 8.15559 6.67665 8.3363 6.85736C8.51702 7.03808 8.81002 7.03808 8.99073 6.85736L11.9357 3.91242ZM0.862305 4.04796H11.6085V3.12245H0.862305V4.04796Z"
        fill="black"
      />
    </svg>