<svg width="30" height="30" viewBox="0 0 30 30" fill="none" xmlns="http://www.w3.org/2000/svg">
<g clip-path="url(#clip0_44_316)">
<path d="M25.0255 4.97052C19.3311 -0.722175 10.1 -0.720808 4.40729 4.97366C-1.28541 10.6681 -1.28404 19.8992 4.41042 25.5919C10.1049 31.2846 19.336 31.2832 25.0287 25.5888C27.7626 22.854 29.2981 19.1451 29.2973 15.2781C29.2965 11.4117 27.7599 7.70403 25.0255 4.97052ZM22.2185 21.0107C22.2179 21.0113 22.2173 21.012 22.2166 21.0126V21.0078L21.4779 21.7416C20.5225 22.709 19.1312 23.107 17.8087 22.7913C16.4764 22.4347 15.2098 21.867 14.057 21.1099C12.986 20.4254 11.9935 19.6252 11.0974 18.7237C10.2729 17.9053 9.53225 17.0066 8.88621 16.0411C8.17957 15.0022 7.62026 13.8705 7.22417 12.6781C6.7701 11.2774 7.14638 9.74034 8.19614 8.70772L9.06116 7.8427C9.30166 7.60112 9.69245 7.60026 9.93398 7.84076C9.93461 7.84139 9.93529 7.84202 9.93592 7.8427L12.6671 10.5739C12.9087 10.8144 12.9095 11.2052 12.669 11.4467C12.6684 11.4473 12.6678 11.4479 12.6671 11.4486L11.0634 13.0523C10.6032 13.5075 10.5453 14.2308 10.9273 14.7533C11.5073 15.5493 12.1492 16.2984 12.8469 16.9937C13.6248 17.7749 14.4705 18.4856 15.374 19.1174C15.8961 19.4815 16.6038 19.4201 17.0554 18.9716L18.6057 17.397C18.8462 17.1555 19.237 17.1546 19.4785 17.3951C19.4791 17.3957 19.4798 17.3964 19.4805 17.397L22.2165 20.1379C22.4582 20.3784 22.459 20.7691 22.2185 21.0107Z" fill="white"/>
</g>
<defs>
<clipPath id="clip0_44_316">
<rect width="29.1586" height="29.1586" fill="white" transform="translate(0.138672 0.702148)"/>
</clipPath>
</defs>
</svg>
