<svg width="14" height="13" viewBox="0 0 14 13" fill="none" xmlns="http://www.w3.org/2000/svg">
<g opacity="0.85">
<path d="M0.614051 10.1341H10.8326C10.9243 10.1341 11.0129 10.102 11.0831 10.0436C11.1813 9.96141 13.4201 8.03539 13.5567 3.87784H2.58212C2.44612 7.65178 0.384211 9.42564 0.362784 9.44334C0.237163 9.54949 0.190945 9.72287 0.24746 9.87714C0.303584 10.031 0.44985 10.1341 0.614051 10.1341Z" fill="black"/>
<path d="M13.1787 1.53174H11.2236V1.14073C11.2236 0.921757 11.0516 0.74971 10.8326 0.74971C10.6136 0.74971 10.4416 0.921757 10.4416 1.14073V1.53174H8.46043V1.14073C8.46043 0.921757 8.28838 0.74971 8.06941 0.74971C7.85044 0.74971 7.67839 0.921757 7.67839 1.14073V1.53174H5.72331V1.14073C5.72331 0.921757 5.55126 0.74971 5.33229 0.74971C5.11332 0.74971 4.94128 0.921757 4.94128 1.14073V1.53174H2.98619C2.76722 1.53174 2.59518 1.70379 2.59518 1.92276V3.09581H13.5697V1.92276C13.5697 1.70379 13.3977 1.53174 13.1787 1.53174Z" fill="black"/>
<path d="M11.5853 10.6431C11.3729 10.8199 11.1064 10.9162 10.8326 10.9162H2.5952V12.0892C2.5952 12.3053 2.77009 12.4802 2.98622 12.4802H13.1787C13.3948 12.4802 13.5697 12.3053 13.5697 12.0892V7.70603C12.8159 9.55556 11.7639 10.4936 11.5853 10.6431Z" fill="black"/>
</g>
</svg>
