<svg width="21" height="13" viewBox="0 0 21 13" fill="none" xmlns="http://www.w3.org/2000/svg">
<path opacity="0.85" d="M10.6677 0.74971C6.82717 0.74971 3.3444 2.85089 0.774467 6.26376C0.564761 6.54337 0.564761 6.934 0.774467 7.21361C3.3444 10.6306 6.82717 12.7318 10.6677 12.7318C14.5082 12.7318 17.991 10.6306 20.5609 7.21772C20.7706 6.93811 20.7706 6.54748 20.5609 6.26787C17.991 2.85089 14.5082 0.74971 10.6677 0.74971ZM10.9432 10.9595C8.3938 11.1199 6.28852 9.01873 6.44888 6.46524C6.58046 4.35995 8.2869 2.65352 10.3922 2.52194C12.9416 2.36157 15.0468 4.46275 14.8865 7.01623C14.7508 9.11741 13.0444 10.8238 10.9432 10.9595ZM10.8157 9.0105C9.44234 9.09685 8.30746 7.96608 8.39792 6.59271C8.46782 5.45783 9.38888 4.54087 10.5238 4.46686C11.8971 4.38051 13.032 5.51128 12.9416 6.88465C12.8675 8.02365 11.9465 8.9406 10.8157 9.0105Z" fill="black"/>
</svg>
