<svg width="30" height="30" viewBox="0 0 30 30" fill="none" xmlns="http://www.w3.org/2000/svg">
<g clip-path="url(#clip0_44_312)">
<path d="M15.2815 18.2714C16.9328 18.2714 18.2714 16.9328 18.2714 15.2815C18.2714 13.6303 16.9328 12.2916 15.2815 12.2916C13.6303 12.2916 12.2916 13.6303 12.2916 15.2815C12.2916 16.9328 13.6303 18.2714 15.2815 18.2714Z" fill="white"/>
<path d="M15.2815 1.04395C7.41834 1.04395 1.04395 7.41834 1.04395 15.2815C1.04395 23.1447 7.41834 29.5191 15.2815 29.5191C23.1447 29.5191 29.5191 23.1447 29.5191 15.2815C29.5191 7.41834 23.1447 1.04395 15.2815 1.04395ZM24.078 18.9002C24.0096 20.2538 23.6293 21.5886 22.6428 22.5645C21.6468 23.5498 20.3057 23.9169 18.9391 23.9845H11.6241C10.2573 23.9169 8.91631 23.55 7.9203 22.5645C6.93381 21.5886 6.55349 20.2538 6.48515 18.9002V11.6629C6.55349 10.3093 6.93386 8.97451 7.9203 7.99849C8.91631 7.01325 10.2574 6.64615 11.6241 6.57855H18.939C20.3058 6.64615 21.6468 7.01308 22.6428 7.99849C23.6293 8.97451 24.0096 10.3093 24.0779 11.6629L24.078 18.9002Z" fill="white"/>
<path d="M18.8465 8.22755C17.0648 8.17869 13.4985 8.17869 11.7168 8.22755C10.7896 8.25301 9.73843 8.48383 9.07781 9.18944C8.39133 9.9229 8.13192 10.8091 8.10561 11.8004C8.05937 13.5403 8.10561 18.7627 8.10561 18.7627C8.13574 19.7539 8.39133 20.6402 9.07781 21.3736C9.73843 22.0795 10.7896 22.3101 11.7168 22.3355C13.4985 22.3844 17.0648 22.3844 18.8465 22.3355C19.7737 22.3101 20.8248 22.0792 21.4855 21.3736C22.1719 20.6402 22.4314 19.754 22.4577 18.7627V11.8004C22.4314 10.8091 22.1719 9.9229 21.4855 9.18944C20.8246 8.4836 19.7735 8.25301 18.8465 8.22755ZM15.2814 19.9159C14.3648 19.9159 13.4688 19.6441 12.7067 19.1348C11.9446 18.6256 11.3506 17.9018 10.9998 17.055C10.6491 16.2082 10.5573 15.2764 10.7361 14.3774C10.9149 13.4784 11.3563 12.6527 12.0044 12.0046C12.6526 11.3564 13.4783 10.9151 14.3773 10.7362C15.2763 10.5574 16.2081 10.6492 17.0549 11C17.9017 11.3507 18.6255 11.9447 19.1347 12.7068C19.6439 13.4689 19.9157 14.3649 19.9157 15.2815C19.9157 16.5106 19.4275 17.6894 18.5584 18.5585C17.6893 19.4276 16.5105 19.9159 15.2814 19.9159ZM19.9354 11.6038C19.7521 11.6037 19.573 11.5494 19.4206 11.4475C19.2682 11.3456 19.1494 11.2008 19.0793 11.0315C19.0092 10.8621 18.9909 10.6757 19.0266 10.496C19.0624 10.3162 19.1507 10.1511 19.2804 10.0215C19.41 9.89185 19.5751 9.8036 19.7549 9.76785C19.9347 9.73211 20.1211 9.75048 20.2904 9.82063C20.4598 9.89079 20.6045 10.0096 20.7064 10.162C20.8082 10.3144 20.8625 10.4936 20.8625 10.6769C20.8625 10.7987 20.8386 10.9192 20.792 11.0317C20.7454 11.1441 20.6771 11.2463 20.591 11.3324C20.5049 11.4185 20.4027 11.4867 20.2902 11.5333C20.1777 11.5799 20.0572 11.6038 19.9354 11.6038Z" fill="white"/>
</g>
<defs>
<clipPath id="clip0_44_312">
<rect width="29.1586" height="29.1586" fill="white" transform="translate(0.702148 0.702148)"/>
</clipPath>
</defs>
</svg>
