<svg width="36" height="36" viewBox="0 0 36 36" fill="none" xmlns="http://www.w3.org/2000/svg">
<path d="M23.1377 17.1225C23.3933 17.1225 23.6004 17.3296 23.6004 17.5852C23.6004 17.8408 23.3933 18.048 23.1377 18.048V17.1225ZM12.0643 17.9124C11.8836 17.7317 11.8836 17.4387 12.0643 17.258L15.0093 14.313C15.19 14.1323 15.483 14.1323 15.6637 14.313C15.8444 14.4938 15.8444 14.7868 15.6637 14.9675L13.046 17.5852L15.6637 20.2029C15.8444 20.3836 15.8444 20.6766 15.6637 20.8574C15.483 21.0381 15.19 21.0381 15.0093 20.8574L12.0643 17.9124ZM23.1377 18.048H12.3915V17.1225H23.1377V18.048Z" fill="white"/>
<circle cx="17.816" cy="17.816" r="17.5846" transform="matrix(-1 0 0 1 35.6318 0.00012207)" stroke="white" stroke-width="0.462753"/>
</svg>
