<svg width="34" height="34" viewBox="0 0 34 34" fill="none" xmlns="http://www.w3.org/2000/svg">
<path d="M32.9484 29.1826L32.9443 29.1867V29.1764L31.3736 30.7367C29.3422 32.7938 26.3838 33.6401 23.5719 32.9687C20.7389 32.2104 18.0458 31.0034 15.5946 29.3934C13.3173 27.938 11.2069 26.2367 9.30161 24.3197C7.54854 22.5795 5.9736 20.6686 4.59991 18.6157C3.09738 16.4068 1.90812 14.0004 1.06591 11.4651C0.100433 8.48664 0.900499 5.21844 3.13262 3.02278L4.97191 1.18348C5.48329 0.669806 6.31423 0.667989 6.82779 1.17937L6.83191 1.18348L12.6392 6.99077C13.1529 7.50215 13.1547 8.33309 12.6433 8.84665L12.6392 8.85077L9.2292 12.2608C8.25076 13.2285 8.12773 14.7664 8.93991 15.8775C10.1732 17.5701 11.5381 19.1629 13.0216 20.6412C14.6756 22.3023 16.4737 23.8135 18.3949 25.1569C19.505 25.9311 21.0099 25.8006 21.9702 24.8469L25.2665 21.4989C25.7779 20.9852 26.6088 20.9834 27.1224 21.4948L27.1265 21.4989L32.9442 27.3269C33.458 27.8381 33.4598 28.6689 32.9484 29.1826Z" fill="white"/>
</svg>
