<svg width="30" height="30" viewBox="0 0 30 30" fill="none" xmlns="http://www.w3.org/2000/svg">
<g clip-path="url(#clip0_44_314)">
<path d="M15.0002 29.8607C23.054 29.8607 29.5795 23.3353 29.5795 15.2814C29.5795 7.22759 23.054 0.702148 15.0002 0.702148C6.94634 0.702148 0.420898 7.22759 0.420898 15.2814C0.420898 23.3353 6.94634 29.8607 15.0002 29.8607ZM7.09214 14.9656L21.149 9.5457C21.8014 9.31 22.3712 9.70486 22.1598 10.6914L22.161 10.6902L19.7676 21.966C19.5902 22.7655 19.1152 22.9599 18.4506 22.5832L14.8058 19.897L13.0478 21.5906C12.8534 21.785 12.6894 21.949 12.3127 21.949L12.5715 18.2398L19.3266 12.1372C19.6206 11.8784 19.261 11.7326 18.8734 11.9902L10.5256 17.246L6.92691 16.1234C6.1457 15.8755 6.12869 15.3422 7.09214 14.9656Z" fill="white"/>
</g>
<defs>
<clipPath id="clip0_44_314">
<rect width="29.1586" height="29.1586" fill="white" transform="translate(0.420898 0.702148)"/>
</clipPath>
</defs>
</svg>
