<svg width="36" height="36" viewBox="0 0 36 36" fill="none" xmlns="http://www.w3.org/2000/svg">
<circle cx="18.1842" cy="17.8161" r="17.5846" fill="#D7B677" stroke="white" stroke-width="0.462753"/>
<path d="M12.8623 17.1225C12.6067 17.1225 12.3996 17.3296 12.3996 17.5852C12.3996 17.8408 12.6067 18.048 12.8623 18.048V17.1225ZM23.9357 17.9124C24.1164 17.7317 24.1164 17.4387 23.9357 17.258L20.9907 14.313C20.81 14.1323 20.517 14.1323 20.3363 14.313C20.1556 14.4938 20.1556 14.7868 20.3363 14.9675L22.954 17.5852L20.3363 20.2029C20.1556 20.3836 20.1556 20.6766 20.3363 20.8574C20.517 21.0381 20.81 21.0381 20.9907 20.8574L23.9357 17.9124ZM12.8623 18.048H23.6085V17.1225H12.8623V18.048Z" fill="black"/>
</svg>
