<svg width="48" height="48" viewBox="0 0 48 48" fill="none" xmlns="http://www.w3.org/2000/svg">
<path d="M31.1216 23.0299C31.4653 23.0299 31.744 23.3086 31.744 23.6523C31.744 23.9961 31.4653 24.2748 31.1216 24.2748V23.0299ZM16.2276 24.0925C15.9845 23.8494 15.9845 23.4553 16.2276 23.2122L20.1886 19.2512C20.4317 19.0081 20.8258 19.0081 21.0688 19.2512C21.3119 19.4943 21.3119 19.8884 21.0688 20.1314L17.5479 23.6523L21.0688 27.1733C21.3119 27.4163 21.3119 27.8104 21.0688 28.0535C20.8258 28.2966 20.4317 28.2966 20.1886 28.0535L16.2276 24.0925ZM31.1216 24.2748H16.6677V23.0299H31.1216V24.2748Z" fill="black"/>
<circle cx="23.9631" cy="23.9631" r="23.6519" transform="matrix(-1 0 0 1 47.9263 0)" stroke="black" stroke-width="0.622417"/>
</svg>
