<svg width="48" height="48" viewBox="0 0 48 48" fill="none" xmlns="http://www.w3.org/2000/svg">
<circle cx="24.0373" cy="23.9631" r="23.6519" fill="#D7B677" stroke="black" stroke-width="0.622417"/>
<path d="M16.8794 23.0299C16.5356 23.0299 16.257 23.3086 16.257 23.6523C16.257 23.9961 16.5356 24.2748 16.8794 24.2748V23.0299ZM31.7734 24.0925C32.0165 23.8494 32.0165 23.4553 31.7734 23.2122L27.8124 19.2512C27.5693 19.0081 27.1752 19.0081 26.9322 19.2512C26.6891 19.4943 26.6891 19.8884 26.9322 20.1314L30.4531 23.6523L26.9322 27.1733C26.6891 27.4163 26.6891 27.8104 26.9322 28.0535C27.1752 28.2966 27.5693 28.2966 27.8124 28.0535L31.7734 24.0925ZM16.8794 24.2748H31.3333V23.0299H16.8794V24.2748Z" fill="black"/>
</svg>
